<?xml version="1.0" standalone="no"?>
<!DOCTYPE svg PUBLIC "-//W3C//DTD SVG 20010904//EN"
 "http://www.w3.org/TR/2001/REC-SVG-20010904/DTD/svg10.dtd">
<svg version="1.0" xmlns="http://www.w3.org/2000/svg"
 width="700.000000pt" height="700.000000pt" viewBox="0 0 700.000000 700.000000"
 preserveAspectRatio="xMidYMid meet">
<metadata>
Created by potrace 1.11, written by Peter Selinger 2001-2013
</metadata>
<g transform="translate(0.000000,700.000000) scale(0.100000,-0.100000)"
fill="#000000" stroke="none">
<path d="M3686 4590 c-8 -25 -26 -85 -40 -135 -72 -262 -179 -644 -241 -860
-8 -27 -32 -115 -54 -195 -22 -80 -54 -194 -71 -255 -17 -60 -56 -198 -86
-305 -29 -107 -71 -257 -93 -332 l-39 -138 109 0 108 0 15 53 c23 79 136 483
156 557 17 60 35 126 125 445 18 66 88 316 155 555 67 239 135 482 151 539 16
58 29 107 29 111 0 4 -47 6 -105 6 l-105 0 -14 -46z"/>
<path d="M1770 4421 c-36 -15 -83 -36 -105 -45 -22 -10 -49 -22 -60 -26 -11
-4 -36 -15 -55 -23 -19 -8 -165 -70 -325 -137 -159 -67 -303 -127 -320 -135
-16 -7 -138 -59 -269 -114 -131 -55 -241 -103 -244 -106 -3 -3 -6 -60 -6 -128
l-1 -122 65 -28 c36 -15 74 -31 85 -36 11 -5 36 -16 55 -24 78 -33 187 -80
215 -92 17 -8 75 -32 130 -56 55 -23 118 -50 140 -60 102 -46 748 -319 755
-319 5 0 9 58 9 129 l1 128 -58 26 c-31 14 -178 76 -327 137 -581 240 -681
282 -709 296 -16 8 -36 14 -45 14 -30 0 6 18 159 80 202 81 211 85 575 235
171 70 330 136 355 145 l45 18 2 136 c1 75 1 136 0 135 -1 0 -31 -13 -67 -28z"/>
<path d="M4982 4315 l3 -137 85 -34 c47 -19 95 -38 108 -44 44 -20 68 -30 177
-74 61 -24 205 -83 320 -131 116 -48 259 -107 320 -131 60 -25 113 -48 117
-52 5 -5 -44 -30 -109 -56 -65 -26 -134 -55 -153 -63 -19 -9 -222 -93 -450
-188 l-415 -171 -3 -136 -3 -136 163 70 c90 38 172 74 183 78 78 34 124 53
150 65 17 7 170 73 340 145 171 73 328 140 350 150 22 10 91 39 153 65 l112
47 0 127 0 128 -352 148 c-194 82 -371 156 -393 166 -22 10 -186 79 -365 155
-179 75 -329 138 -333 141 -4 2 -6 -57 -5 -132z"/>
</g>
</svg>
